<?xml version="1.0" standalone="no"?><!DOCTYPE svg PUBLIC "-//W3C//DTD SVG 1.1//EN" "http://www.w3.org/Graphics/SVG/1.1/DTD/svg11.dtd"><svg t="1743790337946" class="icon" viewBox="0 0 3185 1024" version="1.1" xmlns="http://www.w3.org/2000/svg" p-id="6955" xmlns:xlink="http://www.w3.org/1999/xlink" width="622.0703125" height="200"><path d="M1241.364765 539.566483c111.284869-23.908298 96.09269-157.048079 92.83312-186.125739-5.485267-44.872931-58.227115-123.231838-129.794056-116.971167-90.104846 8.02687-103.257999 138.179909-103.257999 138.179909-12.205437 60.266141 29.120737 188.897091 140.218935 164.916997m206.659592-223.18719c61.429248 0 111.083838-70.791536 111.083838-158.254264 0-87.448368-49.654591-158.125029-111.083838-158.125029-61.457966 0-111.241791 70.676661-111.241791 158.139389 0 87.448368 49.783825 158.239904 111.241791 158.239904m264.843629 10.41052c82.221569 10.769503 134.920339-76.951692 145.460093-143.421067 10.769503-66.383219-42.345688-143.593379-100.443568-156.847049-58.34199-13.411622-131.172552 79.981512-137.73477 140.908183-8.012511 74.539323 10.582832 148.834538 92.718245 159.359933m325.655425 111.672571c0-31.791574-26.320666-127.625796-124.351866-127.625796-98.203512 0-111.198713 90.43511-111.198713 154.334165 0 60.998468 5.083206 146.048826 127.051422 143.406708 121.853342-2.699556 108.499158-138.093753 108.499157-170.115077m-124.351866 279.073733s-127.108859-98.304028-201.303559-204.634925c-100.730756-156.775252-243.677965-92.919276-291.465842-13.311106-47.644283 79.8092-121.709748 130.210476-132.306939 143.593379-10.697707 13.095716-153.530041 90.277158-121.838983 231.1997 31.762856 140.836387 143.14824 138.16555 143.14824 138.16555s82.092335 8.02687 177.294746-13.268028c95.403441-21.237461 177.481417 5.21244 177.481417 5.21244s222.541019 74.625479 283.338456-68.967901c60.912312-143.464145-34.347536-217.989109-34.347536-217.989109" fill="#226CB4" p-id="6956"></path><path d="M1467.768447 580.476236v94.599319h-77.080926s-77.037848 6.389905-104.004685 93.69468c-9.405366 58.298912 8.299697 92.632089 11.386955 99.98407 3.115976 7.323262 28.015068 49.956137 90.535626 62.46312h144.641611V581.495749l-65.478581-1.019513z m-1.163107 293.346915h-58.270193s-40.593848-2.110823-52.957238-48.836108c-6.375546-20.720525 0.947716-44.643182 4.164208-54.048548 2.943664-9.419726 16.570676-31.188482 44.6719-39.559976h62.376964l0.014359 142.444632z m102.094893-190.261227v184.12979s3.015461 45.849366 67.632482 62.534917h166.453445V683.561924h-71.839767v185.192381h-68.565839s-21.91235-3.173414-26.01912-20.806681V682.470614l-67.661201 1.09131z" fill="#FFFFFF" p-id="6957"></path><path d="M2595.866754 562.670657v-77.64094h-511.364743l-0.660529 78.775328h219.827104l-20.605649 47.098629h-186.944221v389.583197h444.105604c46.438099 0 42.316969-46.897598 42.316969-46.897597V610.903674h-187.231408l16.455802-48.233017h184.101071z m-99.309181 354.603851s-5.384752 12.952123-12.995201 12.952123h-294.711052v-90.865891h307.720612v77.913768h-0.014359z m-0.502577-152.941309h-307.232394v-85.193952h307.232394v85.193952z m684.121938-277.235737h-200.62867v-39.301508h-94.111101v37.362997h-230.137109v514.523797h82.795943V551.54217h442.080937v-64.444708z m-54.105985 106.474491v-29.766908h-80.886151v29.766908h-166.396008v-28.718676h-76.621427v28.718676h-51.779773l1.019513 58.270193h50.76026v109.461233h279.892215c38.842009 0 43.982652-40.967191 43.982652-40.967191v-68.508401h59.232269v-58.284553h-59.21791v0.028719z m-80.886151 98.074278s-7.208388 13.268028-16.441442 13.268028H2877.898511v-54.206501h167.286287v40.938473z m-283.496409 149.466348l128.83198 74.711636c-10.19513 11.229002-54.206501 25.459106-54.206501 25.459106h-85.897559v57.437352h116.626542c34.807035-7.122232 99.208666-39.861522 99.208666-39.861522 26.665291 24.482671 77.913768 34.677801 77.913768 34.677801h132.938751v-57.293759h-100.21382c-27.009915-4.034974-51.262836-19.428184-51.262836-19.428184l151.491015-86.988869v-47.112988H2761.731467v58.385068h-0.043078z m268.088839-0.962075l-73.692122 38.842009-67.546326-38.842009h141.238448zM946.696791 569.003125h111.615134v-98.318387h-111.615134v98.318387z m0 428.597519h111.615134V611.85139h-111.615134v385.749254zM765.209119 612.196014l-238.13526-0.617452v81.072822h208.813492s49.697669 12.262875 49.697669 43.810341v28.546363H596.630492s-74.309574 6.849404-98.174794 95.633191c-4.106771 41.570283 1.364137 61.974903 4.164208 69.585352 2.685196 7.509934 24.453953 56.518354 89.257645 68.795588h300.871208V722.705479s-14.330619-94.800349-127.53964-110.509465m20.375901 310.463246h-152.065389c-20.433338-8.24226-27.239664-21.854912-28.675598-25.272435-1.407215-3.360085-6.145797-15.565522-0.631811-27.928912 12.305953-23.822142 32.696213-29.307409 32.696213-29.307409h148.676585v82.508756zM473.91559 862.278244c3.288288-93.924429-80.972307-126.376533-80.972307-126.376534 71.322832-37.319919 62.262089-131.330505 62.262089-131.330505-7.725324-143.894926-183.541058-137.189115-183.541057-137.189114H0v536.278194h306.744177c180.137895-0.703608 167.171412-141.382041 167.171413-141.382041m-173.331569 41.713876v0.22975H116.827574v-115.693186H299.679383l6.188875 1.234903s34.792676 6.361187 47.400174 37.664543c0 0 7.294544 29.393565-8.45765 51.234118 0 0-11.587986 20.217948-44.226761 25.329872m38.956884-248.646296s-12.349031 22.702113-45.11704 27.584289H116.827574v-110.983323h176.835246s38.425588-1.794917 51.147962 28.747394c0 0 7.639168 32.423385-5.269877 54.65164" fill="#CC2229" p-id="6958"></path></svg>