<?xml version="1.0" encoding="UTF-8"?>
<svg width="2273.1" height="994.92" version="1.1" viewBox="0 0 2273.0977 994.92306" xmlns="http://www.w3.org/2000/svg">
 <defs>
  <filter id="a" x="-.09576" y="-.29018" width="1.1915" height="1.5804" color-interpolation-filters="sRGB">
   <feGaussianBlur stdDeviation="23.619524"/>
  </filter>
 </defs>
 <g transform="translate(793.73 38.147)">
  <g transform="matrix(3.2227 0 0 3.2227 3352.9 -2557.5)">
   <path d="m-1153.3 838.43c-22.497 0.0342-37.96 6.5721-54.475 23.033-15.974 15.922-23.476 35.478-22.043 57.465 2.1596 33.141 27.33 62.163 60.268 69.488 15.565 3.4616 36.901 1.2415 50.084-5.2129 14.939-7.3139 27.242-20.827 33.02-36.27 3.5244-9.4199 5.563-24.626 4.4726-33.354l-0.8847-7.0859-35.221 0.33203-35.221 0.33204v21.25l24.062 0.33984c27.446 0.38722 26.174-0.29487 21.656 11.596-7.0155 18.463-24.387 28.261-48.256 27.217-10.278-0.44951-12.593-1.0207-21.004-5.1777-39.624-19.583-39.061-77.498 0.9434-97.152 7.6284-3.7478 10.067-4.3075 20.625-4.7266 15.922-0.63199 23.509 1.9136 38.371 12.875 2.1694 1.6 16.088-12.203 15.045-14.92-0.9521-2.4812-9.9604-8.9197-18.318-13.094-10.893-5.44-18.145-6.9584-33.125-6.9356zm393.75 4.9785-0.33985 70.592c-0.18668 38.825-0.0563 71.331 0.29102 72.236 0.47098 1.2273 3.417 1.5528 11.59 1.2832l10.959-0.36132v-143.75h-22.5zm-267.91 48.131c-18.072 0.0389-36.126 9.576-45.043 28.594-2.9344 6.2582-3.2949 8.5302-3.2949 20.803 0 13.043 0.2192 14.219 4.1015 22.105 6.1624 12.517 18.452 22.509 32.148 26.135 2.0625 0.546 8.5427 0.85199 14.398 0.67969 8.9032-0.26198 12.008-0.95238 18.967-4.209 10.919-5.1095 18.686-12.81 23.793-23.594 3.7753-7.9722 4.0938-9.6157 4.0938-21.145 0-11.477-0.32822-13.192-4.0117-20.969-8.99-18.979-27.08-28.439-45.152-28.4zm105.88 0.13671c-15.532-0.11726-27.988 5.1616-37.418 15.857-6.8591 7.7801-9.7736 13.748-11.625 23.805-4.5582 24.76 8.9669 48.632 32.076 56.617 10.633 3.6739 30.162 2.6955 38.982-1.9531 9.7373-5.1321 19.731-15.708 23.734-25.115 7.646-17.968 3.4932-40.463-10.086-54.633-8.5334-8.9046-19.527-13.801-32.516-14.482-1.0628-0.0558-2.113-0.0879-3.1484-0.0957zm238.91 0.48438c-10.416-8.3e-4 -12.733 0.41993-18.854 3.4258-38.267 18.793-35.706 76.529 4.0684 91.711 10.912 4.1652 27.201 3.6738 37.709-1.1367 6.9892-3.1998 20.826-14.92 20.826-17.641 0-1.2548-15.166-11.986-16.939-11.986-0.39762 0-2.1065 1.6434-3.7969 3.6523-6.3844 7.5874-20.558 11.127-30.121 7.5215-3.9471-1.4881-11.643-8.4391-11.643-10.516 0-0.74349 14.084-7.1909 31.299-14.328 17.214-7.1372 31.585-13.441 31.936-14.008 1.4791-2.3932-7.255-17.753-13.836-24.334-9.9102-9.9102-15.983-12.36-30.648-12.361zm-136.25 0.0566c-8.9161-0.0482-11.731 0.46321-17.5 3.1875-15.274 7.2126-26.116 21.672-28.814 38.426-4.2909 26.644 16.277 53.737 42.607 56.125 8.8731 0.80459 16.583-1.1356 24.521-6.1699l5.7754-3.6621-0.85742 7.8926c-1.8246 16.801-9.7606 24.962-24.412 25.1-9.0518 0.085-16.8-4.0296-21.793-11.574-3.7767-5.7069-3.5762-5.7002-15.277-0.5254-3.7132 1.6422-6.75 3.781-6.75 4.7519 0 2.3212 8.3654 13.348 13.125 17.301 4.5054 3.7414 10.723 7.0453 17.5 9.2988 8.098 2.6927 23.747 1.3995 32.928-2.7207 8.9469-4.0151 17.842-12.828 21.455-21.258 4.4533-10.389 5.0926-19.532 4.7227-67.465-0.34985-45.324-0.40473-46.234-2.8555-46.129-1.375 0.0591-6.0156 0.19419-10.312 0.29882-7.5485 0.18384-7.8125 0.30008-7.8125 3.4668 0 3.1653-0.0963 3.2089-2.8125 1.2539-8.6662-6.2374-12.684-7.5396-23.438-7.5977zm137.01 19.863c2.8069-0.0593 5.597 0.49028 8.2754 1.6777 4.9714 2.2041 9.4632 5.9986 8.334 7.0391-0.26984 0.24863-7.9334 3.6186-17.029 7.4902-22.789 9.7002-22.584 9.6316-23.168 7.8789-1.0285-3.0854 2.03-11.056 5.7988-15.111 5.3534-5.7606 11.614-8.8442 17.789-8.9746zm-134.65 0.36524c7.2745 0.14871 14.464 3.3646 18.707 9.1035 10.44 14.121 7.0118 36.852-6.7324 44.637-3.6136 2.0467-6.9864 2.8066-12.455 2.8066-9.3072 0-15.832-3.3799-21.16-10.961-3.0985-4.4087-3.8508-6.8732-4.25-13.938-0.78392-13.873 3.295-22.593 13.324-28.486 3.8065-2.2366 8.2017-3.2513 12.566-3.1621zm-209.46 0.39257c3.1215 0.0266 6.1276 0.56229 8.7071 1.6641 20.96 8.9528 22.013 42.111 1.6523 51.969-9.3132 4.5076-21.999 2.7482-29.305-4.0664-11.248-10.49-11.252-32.621-0.01-42.938 4.6628-4.2791 12.088-6.6874 18.955-6.6289zm104.01 0.15235c9.6022-0.23198 18.712 5.12 23.264 14.523 3.3425 6.9047 3.6682 18.58 0.70508 25.27-2.8288 6.3858-10.962 13.747-16.65 15.066-13.688 3.1756-23.546-1.4585-29.975-14.088-7.3494-14.438-1.2878-32.387 13.041-38.621 3.1595-1.3746 6.4145-2.0731 9.6152-2.1504z" filter="url(#a)"/>
   <path d="m-759.61 986.24c-0.34731-0.90508-0.47874-33.411-0.29206-72.236l0.33941-70.591h22.5v143.75l-10.958 0.36146c-8.1729 0.2696-11.118-0.0568-11.589-1.2841z" fill="#69a753"/>
   <path d="m-938.56 987.96c-23.109-7.985-36.634-31.859-32.076-56.619 1.8514-10.057 4.7653-16.024 11.624-23.804 10.058-11.409 23.56-16.655 40.565-15.763 12.988 0.68171 23.984 5.5792 32.517 14.484 13.579 14.17 17.732 36.665 10.086 54.633-4.0031 9.4072-13.998 19.983-23.735 25.115-8.82 4.6486-28.349 5.6272-38.982 1.9533zm23.85-20.107c5.6881-1.3196 13.823-8.6793 16.652-15.065 2.9632-6.6892 2.6374-18.366-0.70514-25.271-6.0695-12.538-20.242-17.871-32.88-12.373-14.329 6.2342-20.389 24.185-13.04 38.623 6.4288 12.629 16.286 17.262 29.974 14.086z" fill="#e9bf04"/>
   <path d="m-1039.6 989.18c-13.696-3.6259-25.987-13.617-32.149-26.134-3.8823-7.8862-4.1007-9.0633-4.1007-22.106 0-12.273 0.3596-14.543 3.294-20.801 17.834-38.035 72.214-38.152 90.194-0.19407 3.6835 7.7762 4.0116 9.4917 4.0116 20.969 0 11.529-0.318 13.172-4.0933 21.144-5.1066 10.783-12.873 18.485-23.792 23.595-6.9592 3.2566-10.065 3.9456-18.968 4.2075-5.8557 0.1723-12.334-0.13346-14.397-0.67946zm23.88-22.705c20.362-9.8573 19.308-43.016-1.6523-51.969-8.2542-3.5257-20.88-1.26-27.662 4.9642-11.242 10.317-11.238 32.448 0.01 42.938 7.3062 6.815 19.992 8.5754 29.305 4.0669zm318.21 20.826c-39.774-15.182-42.335-72.919-4.0678-91.712 6.1206-3.0058 8.4362-3.4266 18.853-3.4258 14.666 1e-3 20.74 2.4509 30.65 12.361 6.5809 6.581 15.314 21.942 13.835 24.335-0.35021 0.56665-14.721 6.8698-31.936 14.007-17.214 7.1372-31.299 13.585-31.299 14.328 0 2.0765 7.6968 9.0274 11.644 10.516 9.5634 3.6056 23.737 0.0667 30.121-7.5207 1.6904-2.0089 3.3988-3.6526 3.7964-3.6526 1.7732 0 16.938 10.732 16.938 11.987 0 2.7207-13.836 14.441-20.825 17.641-10.508 4.8105-26.798 5.3013-37.71 1.1361zm15.122-59.01c9.0958-3.8716 16.759-7.2428 17.029-7.4914 1.1292-1.0405-3.3627-4.8337-8.3341-7.0378-8.5708-3.7999-18.277-1.0827-26.064 7.2963-3.7688 4.0554-6.8273 12.025-5.7988 15.111 0.58424 1.7527 0.37893 1.8225 23.168-7.8777z" fill="#c94b3b"/>
   <path d="m-830.81 1032.4c-6.777-2.2535-12.995-5.5573-17.5-9.2987-4.7596-3.9525-13.125-14.979-13.125-17.3 0-0.9709 3.0381-3.1088 6.7513-4.751 11.701-5.1748 11.501-5.1817 15.277 0.5252 4.9927 7.5446 12.74 11.659 21.792 11.574 14.652-0.138 22.589-8.2988 24.414-25.1l0.85717-7.8932-5.7751 3.6625c-7.9382 5.0343-15.65 6.9745-24.523 6.1699-26.33-2.3875-46.898-29.481-42.607-56.125 2.6982-16.754 13.54-31.212 28.814-38.424 5.7692-2.7243 8.5839-3.2372 17.5-3.189 10.753 0.0581 14.771 1.3608 23.438 7.5982 2.7162 1.955 2.8125 1.9121 2.8125-1.2532 0-3.1667 0.26396-3.2839 7.8125-3.4677 4.2969-0.10463 8.9375-0.23865 10.312-0.29779 2.4507-0.10538 2.507 0.8035 2.8569 46.128 0.36997 47.933-0.27022 57.077-4.7235 67.466-3.6132 8.4293-12.508 17.242-21.455 21.257-9.181 4.1202-24.831 5.4131-32.929 2.7204zm26.206-66.181c13.744-7.7846 17.173-30.516 6.733-44.637-6.7888-9.1823-21.123-11.905-31.274-5.9411-10.029 5.8929-14.108 14.613-13.324 28.486 0.39917 7.0644 1.1506 9.5291 4.2491 13.938 5.3281 7.581 11.853 10.961 21.16 10.961 5.4687 0 8.8422-0.76023 12.456-2.8069zm-364.96 22.231c-32.937-7.3251-58.109-36.348-60.269-69.488-1.4328-21.987 6.0686-41.543 22.043-57.465 16.515-16.461 31.979-23 54.476-23.034 14.98-0.0228 22.232 1.4956 33.125 6.9356 8.3579 4.174 17.365 10.613 18.317 13.094 1.0427 2.7173-12.875 16.52-15.045 14.92-14.862-10.961-22.449-13.507-38.371-12.875-10.558 0.41905-12.997 0.97787-20.625 4.7257-40.004 19.654-40.566 77.57-0.9424 97.154 8.4112 4.157 10.726 4.7276 21.004 5.1771 23.869 1.0439 41.239-8.7533 48.254-27.217 4.5181-11.891 5.7914-11.209-21.654-11.596l-24.062-0.33949v-21.25l35.22-0.33181 35.22-0.33181 0.8852 7.0847c1.0904 8.7272-0.9493 23.934-4.4737 33.354-5.7777 15.442-18.08 28.955-33.018 36.269-13.183 6.4544-34.518 8.6755-50.084 5.2139z" fill="#607ef4"/>
  </g>
 </g>
</svg>
