<?xml version="1.0" standalone="no"?><!DOCTYPE svg PUBLIC "-//W3C//DTD SVG 1.1//EN" "http://www.w3.org/Graphics/SVG/1.1/DTD/svg11.dtd"><svg t="1743790416942" class="icon" viewBox="0 0 2775 1024" version="1.1" xmlns="http://www.w3.org/2000/svg" p-id="19110" xmlns:xlink="http://www.w3.org/1999/xlink" width="541.9921875" height="200"><path d="M219.9777 1014.973077v-329.631767L0 95.425144h110.684167l161.94787 455.485501L459.207412 0.005422h101.410563l-239.32188 689.353276v325.527634z m652.044706 0h-84.920841a298.86975 298.86975 0 0 1-8.674521-51.697429h-6.592635c-28.463269 36.172749-64.622465 60.721641-121.527317 60.721641-92.294184 0-155.44198-69.480196-155.44198-197.074255 0-138.792323 70.694629-226.223354 252.160169-226.223354h14.226213v-38.520292c0-85.007587-28.463269-121.172204-85.007587-121.172203-51.437194 0-95.330266 27.064503-128.640423 56.65546l-19.34418-88.564141c29.580114-24.635637 88.56414-51.69743 154.487783-51.697429 114.500956 0 177.301771 49.008328 177.301771 206.019854V868.292363a921.602711 921.602711 0 0 0 11.537112 146.507224z m-110.423931-338.306287h-11.710602c-124.91038 0-151.885427 55.427473-151.885427 138.792323 0 74.598163 24.288657 123.435711 75.72585 123.435712 34.698081 0 69.480196-23.160969 87.523198-51.437194zM1085.670417 1014.973077h-100.534978V364.839476H1085.670417v56.815396h6.50589c17.782766-24.288657 66.87784-64.275484 127.339246-64.275484 84.660606 0 129.681366 47.620405 129.681366 146.680715v510.99972h-101.578632V513.081604c0-48.921583-21.773046-65.923643-60.632185-65.923642-42.071423 0-78.070682 32.258372-101.40243 64.622464v503.105906z m362.58139-299.780574c0-240.536312 90.212299-357.823958 219.890954-357.823958 30.968037 0 63.061051 10.409424 82.491976 24.375402V95.425144h100.534978v919.461188h-74.595452l-7.980558-51.437194h-6.3324c-28.365681 36.086004-64.275484 60.285205-117.190057 60.285205-127.2525 0-196.472461-107.90832-196.47246-308.455095z m302.472386-244.613337c-20.385122-20.385122-42.331659-30.794547-75.902051-30.794547-80.930563 0-119.705668 122.221279-119.705668 254.675781 0 151.885427 28.463269 244.526592 101.925612 244.526591 50.396251 0 77.027028-24.635637 93.768852-50.309506z m416.797141 553.415412c-133.582189 0-216.163621-106.867378-216.163621-306.112974 0-208.616789 57.943084-360.415471 195.431518-360.41547 108.160424 0 178.602949 81.104053 178.602949 301.168497v55.256694h-269.595955c0 146.680715 41.02777 223.794488 120.833355 223.794488 56.555161 0 97.932622-25.67658 123.522457-43.719581l23.160969 77.113773c-40.932892 32.18247-91.339987 52.738372-155.528725 52.738372zM2056.837167 631.399349h165.93815c0-110.684167-17.956257-191.614729-75.902052-191.61473-61.499637 0-83.272683 75.986086-90.212299 191.61473z m704.95657-265.085205l-120.833356 303.608207L2775.846459 1014.886332h-104.004786l-100.621723-267.600815-97.588352 267.51407h-98.881398l134.883367-335.866578-122.221278-312.53212h104.178276l84.05339 235.331601 88.477395-235.499669z" fill="#FF0000" p-id="19111"></path></svg>